<svg version="1.1" id="Layer_1" xmlns="http://www.w3.org/2000/svg" xmlns:xlink="http://www.w3.org/1999/xlink" x="0px" y="0px" style="enable-background:new 0 0 1920 1080;" xml:space="preserve" viewBox="902.07 481 111.93 111">
<g>
	<g>
		<path d="M902.1,497c5.3,0,10.6,0,15.9,0c0-5.3,0-10.7,0-16c26.4,0,52.6,0,79,0c0,5.3,0,10.7,0,16c5.6,0,11.3,0,17,0    c0,0.3,0,0.5,0,0.8c0,25.9,0,51.6,0,77.5c0,0.7-0.2,0.8-0.8,0.8c-5.2,0-10.4,0-15.6-0.1c-0.1,0-0.3,0-0.5,0c0,5.3,0,10.7,0,16    c-26.4,0-52.6,0-79,0c0-5.3,0-10.7,0-16c-5.3,0-10.6,0-16,0C902.1,549.7,902.1,523.4,902.1,497z"/>
	</g>
</g>
</svg>