<svg version="1.1" id="NOTES_xA0_Image_00000029025982689919465230000001401807431983794565_" xmlns="http://www.w3.org/2000/svg" xmlns:xlink="http://www.w3.org/1999/xlink" x="0px" y="0px" style="enable-background:new 0 0 288 120;" xml:space="preserve" viewBox="109.68 14 68.63 92">
<g>
	<g>
		<path d="M178.3,60c-2.5,0-5,0-7.6,0c0-2.7,0-5.3,0-8c-2.7,0-5.3,0-8,0c0-5.4,0-10,0-15c-2.4,0-4.6,0-7,0c0,20.3,0,40.6,0,61    c-2.4,0-5.4,0-8,0c0,2.8,0,5.3,0,8c-10.1,0-19.9,0-30,0c0-2.6,0-5.2,0-8c-2.6,0-5.3,0-8,0c0-7.7,0-15.2,0-23c2.7,0,5.2,0,8,0    c0-2.6,0-5.4,0-8c7.7,0,15.3,0,23,0c0-17.8,0-35.3,0-53c5.1,0,10.1,0,15,0c0,2.7,0,5.2,0,8c5,0,9.9,0,15,0c0,2.8,0,5.4,0,8    c2.6,0,5,0,7.5,0C178.3,40.2,178.3,50,178.3,60z"/>
	</g>
</g>
</svg>