<?xml version="1.0" encoding="utf-8"?>
<!-- Generator: Adobe Illustrator 27.4.0, SVG Export Plug-In . SVG Version: 6.00 Build 0)  -->
<svg version="1.1" id="Layer_1" xmlns="http://www.w3.org/2000/svg" xmlns:xlink="http://www.w3.org/1999/xlink" x="0px" y="0px"
	 viewBox="0 0 1920 1080" style="enable-background:new 0 0 1920 1080;" xml:space="preserve">
<g>
	<g>
		<path d="M1044.4,150.3c2-0.1,3.4-0.3,4.8-0.3c14.2-0.1,28.5-0.1,42.7-0.2c1.9,0,3.8,0,5.7-0.2c1.9-0.2,2.8-1.3,3.1-3.1
			c0.2-1.3,0.1-2.6,0.1-3.8c0-13.8-0.1-27.5-0.1-41.3c0-0.8,0-1.6,0-2.4c0.1-4.2,0.8-5,5.2-5c6.6,0,13.1,0.2,19.7,0.2
			c7.8,0,15.7-0.1,23.5-0.2c6.3-0.1,6.8,0.4,6.8,6.8c0,49.4,0,98.9,0,148.3c0,2.1,0.3,4.1,0.4,6.2c0.1,1.7,0.4,3.5-0.5,5.1
			c-1.2,1.1-2.7,0.9-4.2,0.9c-14.7,0-29.4,0-44.2,0c-1.3,0-2.6-0.1-3.8,0.1c-2,0.2-2.9,1.2-3.1,3c-0.1,0.6-0.1,1.3-0.1,1.9
			c0,33.4,0.1,66.9,0.1,100.3c0,1.3-0.1,2.6-0.2,3.8c-0.2,1.4-1.1,2.3-2.5,2.5c-0.9,0.1-1.9,0.1-2.9,0.1c-7.7-0.2-15.3,0.2-23-0.6
			c-4.6-0.4-9.3-0.1-13.9-0.1c-3.4,0-6.7-0.1-10.1,0c-2.6,0.1-3.5,0.9-3.7,3.4c-0.1,1.3,0,2.6,0,3.8c0,13.9,0.1,27.8,0.1,41.8
			c0,6.6-0.2,6.8-6.7,6.8c-14.1,0-28.2-0.1-42.2-0.1c-1.4,0-2.9,0-4.3,0.2c-1.4,0.2-2.3,1.1-2.5,2.5c-0.1,1.3-0.2,2.6-0.2,3.8
			c0,14.9,0,29.8,0.1,44.6c0,0.6,0,1.3,0,1.9c0.2,2.6,0.8,3.3,3.6,3.3c1.9,0,3.8,0,5.8,0c67,0,134.1,0,201.1,0c21,0,41.9,0,62.9,0.1
			c5.7,0,6.2,0.4,6.2,6.4c0,14.1,0,28.2,0,42.2c0,0.3,0,0.6,0,1c0,5.2-0.7,5.8-5.7,5.9c-9.6,0.1-19.2,0.4-28.8,0.5
			c-5.1,0.1-10.2-0.1-15.4-0.1c-1.1,0-2.2,0-3.3,0.1c-1.5,0.2-2.3,1-2.5,2.5c-0.1,1.3-0.1,2.6-0.1,3.8c0,14.2,0.1,28.5,0.1,42.7
			c0,5.9-1.1,7-7,6.9c-14.4-0.1-28.8-0.2-43.2-0.3c-0.6,0-1.3,0-1.9,0c-2.8,0.3-3.6,1.1-3.8,3.9c-0.1,1.6-0.1,3.2,0,4.8
			c0.1,13.6,0.1,27.2,0.2,40.8c0,1.3,0,2.6-0.2,3.8c-0.2,1.4-1.1,2.3-2.5,2.6c-0.8,0.1-1.6,0.2-2.4,0.2c-13.4,0-26.9,0-40.3-0.1
			c-2.4,0-4.8-0.3-7.2-0.3c-2.8,0-3.7,1-3.9,3.7c-0.1,1.3,0,2.6,0,3.8c0,13.6,0.1,27.2,0.1,40.8c0,1.3,0,2.6-0.1,3.8
			c-0.3,1.8-1.4,2.9-3.2,3.1c-1.4,0.2-2.9,0.1-4.3,0.1c-14.2,0-28.5,0-42.7,0c-1.6,0-3.2-0.4-5,0.8c-0.1,0.9-0.5,1.9-0.5,3
			c0,8.8,0.1,17.6,0.2,26.4c0.1,7.4,0.1,14.7,0.1,22.1c0,0.5,0,1-0.1,1.4c-0.2,1.6-1.1,2.5-2.8,2.7c-1.3,0.1-2.6,0.1-3.8,0.1
			c-13.3,0-26.6-0.1-39.8-0.1c-1.8,0-3.5-0.1-5.3,0.1c-2.6,0.2-3.7,1.3-3.9,3.9c-0.1,1.4-0.1,2.9,0,4.3c0,13.6,0.1,27.2,0.1,40.8
			c0,6.6-0.2,6.8-6.7,6.8c-14.4,0-28.8-0.1-43.2-0.1c-6.1,0-6.1,0.1-6.2,6.2c-0.1,14.4-0.1,28.8-0.2,43.2c0,0.5,0,1,0,1.4
			c-0.1,4.3-0.7,4.9-5.1,4.9c-14.9,0.1-29.8,0.1-44.6,0.1c-5.3,0-5.7,0.3-5.7,5.7c0,14.2,0,28.5,0,42.7c0,1.6,0,3.2-0.2,4.8
			c-0.2,1.4-1.1,2.4-2.5,2.5c-1.4,0.2-2.9,0.2-4.3,0.2c-14.2,0-28.5-0.1-42.7-0.1c-6,0-6.3,0.4-6.3,6.2c0.1,14.6,0.1,29.1,0.2,43.7
			c0,1.7,0.3,3.5-0.8,5.4c-1.1,0.1-2.4,0.3-3.6,0.3c-15,0-30.1,0.1-45.1,0.1c-5.5,0-6-0.5-6-6c0-40.6,0.1-81.3,0-121.9
			c0-10.9-0.4-21.7-0.6-32.6c0-1.4,0-2.9,0.3-4.3c0.2-1.4,1.2-2.3,2.7-2.4c1.6-0.1,3.2-0.2,4.8-0.2c13.3,0,26.6,0.1,39.8,0.1
			c1,0,1.9,0,2.9,0c4.7-0.1,5.5-0.9,5.6-5.7c0-13.8-0.1-27.5-0.1-41.3c0-19.2-0.1-38.4-0.1-57.6c0-1.4,0-2.9,0.2-4.3
			c0.3-1.7,1.1-2.5,2.9-2.7c1.1-0.2,2.2-0.2,3.3-0.2c14.2,0,28.5,0.1,42.7,0.1c6.6,0,6.8-0.2,6.8-6.7c0-13.9,0-27.8,0-41.8
			c0-1.6,0-3.2,0.2-4.8c0.1-1.5,1-2.3,2.5-2.5c0.9-0.1,1.9-0.1,2.9-0.1c14.9,0.1,29.8,0.1,44.6,0.2c5.5,0,6.1-0.5,6.1-6
			c0-14.1,0-28.2,0-42.2c0-1.4,0-2.9-0.1-4.3c-0.3-3.1-1-3.8-4.2-3.9c-0.3,0-0.6,0-1,0c-6.1,0-12.2-0.4-18.2,0
			c-24.6,1.4-49.3,0.5-73.9,0.6c-24.6,0.2-49.3,0.5-73.9-0.1c-29.1-0.7-58.2-0.3-87.3-0.5c-4.5,0-9,0-13.4,0c-1.1,0-2.2,0-3.4-0.1
			c-2.4-0.2-3.3-1.1-3.6-3.6c-0.1-0.9-0.1-1.9-0.1-2.9c0-14.1,0-28.2,0-42.2c0-5.9,0.6-6.6,6.5-6.6c14.1,0,28.2,0.1,42.2,0.1
			c1.6,0,3.2,0,4.8-0.2c1.5-0.2,2.3-1,2.4-2.5c0.2-1.3,0.1-2.6,0.1-3.8c0-14.2-0.1-28.5-0.1-42.7c0-1.3,0-2.6,0.1-3.8
			c0.1-1.4,1.1-2.3,2.5-2.6c1.1-0.2,2.2-0.3,3.3-0.3c14.9,0,29.8,0,44.6-0.1c0.8,0,1.6,0,2.4-0.1c1-0.1,1.8-0.8,2-1.8
			c0.2-1.1,0.3-2.2,0.3-3.3c0-13.6-0.1-27.2-0.1-40.8c0-2.1-0.1-4.2,0.1-6.2c0.2-2.4,1.4-3.3,3.8-3.5c1.3-0.1,2.6-0.1,3.8-0.1
			c13.9,0,27.8,0.1,41.8,0.1c0.8,0,1.6,0,2.4,0c2.9-0.2,3.9-1.1,4.1-4.1c0.1-1.9,0-3.8,0-5.8c-0.1-13.3-0.1-26.6-0.1-39.8
			c0-5.7,0.4-6.1,5.9-6.1c14.1,0,28.2,0,42.2,0.1c7,0,8,0.2,7.9-7.6c-0.2-13.6-0.1-27.2-0.2-40.8c0-1.6,0-3.2,0.2-4.8
			c0.1-1.4,1-2.4,2.4-2.6c1.3-0.2,2.5-0.2,3.8-0.2c14.4,0,28.8,0.1,43.2,0.2c5.4,0,6.2-0.8,6.2-6c0-13.9-0.1-27.8-0.1-41.8
			c0-1.6-0.1-3.2,0.1-4.8c0.2-2.2,1.1-3.1,3.4-3.3c1.7-0.2,3.5-0.1,5.3-0.1c13.4,0.1,26.9,0.2,40.3,0.2c1.6,0,3.2-0.1,4.8-0.3
			c1.2-0.2,2-1.1,2.1-2.3c0.1-1.1,0.1-2.2,0.1-3.4c0-14.4,0-28.8-0.1-43.2c0-6.4,0.5-6.9,6.7-6.9c13.6,0,27.2,0.1,40.8,0.1
			c1.8,0,3.5,0,5.3-0.2c1.7-0.2,2.5-1.1,2.7-2.8c0.1-1.4,0.1-2.9,0.1-4.3c0-13.9,0-27.8,0-41.8
			C1044.4,154.4,1044.4,152.7,1044.4,150.3z"/>
	</g>
</g>
</svg>
