<svg version="1.1" id="Layer_1" xmlns="http://www.w3.org/2000/svg" xmlns:xlink="http://www.w3.org/1999/xlink" x="0px" y="0px" style="enable-background:new 0 0 3840 3840;" xml:space="preserve" viewBox="326.4 568 3238.5 2754.75">
<g id="_x36_14904" transform="matrix(1 0 0 1 1920 1920)">
	<g>
		<g>
			<path d="M1241.2,24c-27.5,0-53.9,0-81.2,0c0,27,0,53.4,0,81c-27.8,0-54.4,0-82,0c0,27.3,0,54.9,0,82c-27.1,0-53.1,0-80,0     c0,27.2,0,53.3,0,80.3c-9.6,1.2-18.4,0.5-27.3,0.7c-8.7,0.1-17.2,0-25.9,0c-8.9,0-17.8,0-27.9,0c0,26.9,0,52.8,0,80     c-27.3,0-53.5,0-81,0c0,27.4,0,53.3,0,81c-27.8,0-54.4,0-82.3,0c-0.5,14.2-0.2,27.5-0.2,40.9c-0.1,13.2,0,26.3,0,40.9     c-13.8,0.1-27,0.2-40.4,0.2s-25.1,0-39.1,0c0,27.3,0,53.4,0,80.9c-13.9,0.2-27.1,0.1-40.3,0.1c-13.3,0-26.4,0-40.7,0     c0,27,0,52.8,0,80c-27.3,0-53.5,0-81,0c0,27.4,0,53.7,0,81c-27.6,0-53.5,0-81,0c0,27.2,0,53.5,0,81c-27.4,0-53.8,0-80.5,0     c-2.6,9.9-1.1,18.8-1.4,27.7c-0.3,8.8-0.1,17.4-0.1,26.2c0,9,0,16.9,0,27.2c-27.2,0-53.6,0-81,0c0,27.5,0,53.7,0,81     c-27.1,0-53,0-80,0c0,27.3,0,53.5,0,81.1c-13.9,0.7-27.1,0.3-40.2,0.4c-13.2,0.1-26.5,0-40.8,0c0,26.9,0,53.2,0,80.5     c-27.3,0-53.5,0-81,0c0,27.5,0,54.2,0,82c-27.8,0-54.4,0-82,0c0,27.5,0,53.7,0,81c-27.3,0-53,0-80,0c0,27.3,0,53.5,0,79.4     c-7.8,2.4-389.7,3.1-405,0.9c0-26.2,0-52.9,0-80.3c-27.5,0-53.7,0-81,0c0-27.1,0-53.1,0-80c-27.4,0-54.3,0-79.5,0     c-1.2-1.2-1.4-1.4-1.6-1.6c-0.2-0.2-0.5-0.5-0.5-0.8c-0.2-1-0.4-2-0.4-3c0-564.3,0-1128.7,0-1693c0-0.9,0.4-1.9,0.8-3.6     c242.4,0,484.9,0,728.2,0c0,188.7,0,377,0,565.4c7.9,2.3,61.7,3,80.6,1.1c0.6-26.3-0.1-52.8,0.4-80.5c27.1,0,53.5,0,81,0     c0-27.5,0-53.7,0-81c27.2,0,54.1,0,81,0c0-27.3,0-53.5,0-81c13.9-0.8,27.1-0.3,40.3-0.4c13.3-0.1,26.5,0,40.7,0     c0-26.9,0-53.3,0-80.6c27.2,0,53.2,0,80.8,0c0.3-14.2,0.1-27.4,0.2-40.6c0-13.3,0-25.7,0-40.4c27.3,0,53.6,0,81,0     c0-27.8,0-54.4,0-82c27.1,0,81,0,81,0s0-52.6,0-78.5c7.8-2.3,1038.4-3,1053-0.9v80.4c0,0-53.8,0-81,0c0,27,0,53.2,0,80.7     c-27,0.6-53.2-0.1-80.7,0.4c-0.6,26.9,0.1,53.3-0.4,81c-27,0-53.5,0-80.9,0c0,27.4,0,52.7,0,80c-27.1,0-53.1,0-80,0     c0,27.4,0,53.6,0,81.2c-13.9,0.8-27.1,0.3-40.2,0.4c-13.2,0.1-26.5,0-40.7,0C1241.2-29.8,1241.2-3.7,1241.2,24z"/>
			<path d="M-1593.4-1352c215.9,0,431.8,0,646.4,0c0,863.5,0,1726.4,0,2590.5c-8.8,1.1-17.6,0.4-26.4,0.5c-8.7,0.1-17.2,0-25.9,0     c-8.9,0-17.8,0-27.8,0c0,27,0,53.7,0,81c-27.2,0-53.3,0-80.6,0c-1,27.5,0.2,53.9-0.7,81c-107.9,0-214.3,0-323,0     c-0.9-26.6,0.1-53.2-0.6-81c-27.3,0-53.9,0-81.1,0c0-27.3,0-52.5,0-79.8c-9.5-0.1-18.3-0.2-27.2-0.2c-8.7,0-17.3,0-26,0     c-8.9,0-17.8,0-27.3,0C-1593.4,375.5-1593.4-487.7-1593.4-1352z"/>
		</g>
	</g>
</g>
</svg>